<svg aria-hidden="true" style="position: absolute; width: 0; height: 0; overflow: hidden;" version="1.1" xmlns="http://www.w3.org/2000/svg" xmlns:xlink="http://www.w3.org/1999/xlink">
  <defs>
    <symbol id="icon-email" viewBox="0 0 24 32">
      <path d="M20 8H4c-1.1 0-1.99.9-1.99 2L2 22c0 1.1.9 2 2 2h16c1.1 0 2-.9 2-2V10c0-1.1-.9-2-2-2zm-.4 4.25-7.07 4.42c-.32.2-.74.2-1.06 0L4.4 12.25a.85.85 0 1 1 .9-1.44L12 15l6.7-4.19a.85.85 0 1 1 .9 1.44z"/>
    </symbol>
    <symbol id="icon-person" viewBox="0 0 32 32">
      <path d="M16 16c2.947 0 5.333-2.387 5.333-5.333S18.946 5.334 16 5.334c-2.947 0-5.333 2.387-5.333 5.333S13.054 16 16 16zm0 2.667c-3.56 0-10.667 1.787-10.667 5.333v1.333c0 .733.6 1.333 1.333 1.333h18.667c.733 0 1.333-.6 1.333-1.333V24c0-3.547-7.107-5.333-10.667-5.333z"/>
    </symbol>
    <symbol id="icon-phone" viewBox="0 0 24 32">
      <path d="m19.635 18.487-2.451-.28a1.92 1.92 0 0 0-1.582.55l-1.775 1.775a14.514 14.514 0 0 1-6.359-6.359l1.785-1.785c.415-.415.618-.994.55-1.582l-.28-2.432a1.931 1.931 0 0 0-1.92-1.708H5.934c-1.09 0-1.997.907-1.93 1.997.511 8.24 7.102 14.821 15.332 15.332 1.09.068 1.997-.839 1.997-1.93v-1.669a1.913 1.913 0 0 0-1.698-1.911z"/>
    </symbol>
    <symbol id="icon-plane" viewBox="0 0 32 32">
      <path d="m32 2.667-32 15 10.227 3.156L26 8.5 14.002 21.988l.01.003-.012-.003v7.345l5.735-5.576L27 25.999l5-23.333z"/>
    </symbol>
    <symbol id="icon-logo" viewBox="0 0 32 32">
      <path d="m15.627 2.667-12.96 7.92v18.747H4.24V11.467l11.387-6.96 12.133 6.987v17.84h1.573V10.561z"/>
      <path d="M20.853 11.547h-9.707v8.08H7.093v9.707h17.813v-9.707h-4.053v-8.08zm-8.133 1.6h1.68v1.893h3.173v-1.893h1.68v6.48H12.72v-6.48zM8.667 27.76V21.2h1.68v1.893h3.173v-1.84h1.68v6.48H8.667zm14.666 0H16.8v-6.507h1.68v1.84h3.173V21.2h1.68v6.56z"/>
    </symbol>
    <symbol id="icon-viber" viewBox="0 0 32 32">
      <path d="M15.2 0C12.631.037 7.111.459 4.027 3.289 1.736 5.582.928 8.933.844 13.089.76 17.244.651 25.034 8.16 27.146h.004l-.005 3.221s-.049 1.303.813 1.569c1.036.323 1.645-.667 2.64-1.736a83.153 83.153 0 0 0 1.863-2.107c5.133.435 9.083-.555 9.533-.7 1.035-.336 6.901-1.088 7.856-8.876.987-8.027-.48-13.107-3.12-15.395-.795-.733-4.008-3.067-11.167-3.097 0 0-.527-.033-1.383-.023zm.077 2.257c.727-.005 1.173.023 1.173.023 6.056.027 8.956 1.851 9.629 2.461 2.233 1.913 3.373 6.491 2.541 13.196v.003c-.805 6.504-5.565 6.912-6.443 7.193-.373.12-3.843.983-8.204.699 0 0-3.248 3.92-4.263 4.939-.16.16-.347.223-.469.192-.173-.044-.221-.251-.22-.552l.027-5.357c-6.349-1.76-5.98-8.389-5.907-11.86.072-3.472.724-6.317 2.661-8.231 2.613-2.364 7.299-2.691 9.48-2.707zm.507 3.47a.405.405 0 0 0-.005.81c2.165.013 3.928.716 5.371 2.123 1.431 1.395 2.16 3.291 2.177 5.779.003.223.187.4.409.4a.406.406 0 0 0 .4-.405c-.019-2.645-.824-4.795-2.421-6.352-1.587-1.547-3.589-2.337-5.929-2.353zm-5.28.926c-.253-.043-.533.007-.821.156l-.013.003a6.142 6.142 0 0 0-1.528 1.243c-.003.005-.008.005-.011.011-.356.431-.56.851-.613 1.264a.778.778 0 0 0-.009.187c0 .181.029.36.087.533l.017.013c.18.64.631 1.701 1.607 3.472.56 1.024 1.204 2 1.928 2.915.36.459.747.897 1.16 1.312l.176.176c.413.411.853.8 1.312 1.16a20.72 20.72 0 0 0 2.915 1.929c1.771.977 2.835 1.427 3.472 1.608l.013.019c.173.056.353.085.536.084.061.003.123 0 .184-.011.413-.048.836-.253 1.264-.613.005 0 .004-.003.011-.007.493-.44.911-.96 1.24-1.531l.004-.013c.3-.576.2-1.123-.24-1.493-.005 0-.931-.773-1.383-1.107-.48-.34-.973-.656-1.484-.947-.68-.38-1.376-.141-1.664.232l-.596.752c-.307.377-.876.328-.876.328-4.16-1.061-5.273-5.273-5.273-5.273s-.049-.568.331-.875l.751-.597c.369-.287.608-.983.227-1.664a16.75 16.75 0 0 0-.947-1.487 37.184 37.184 0 0 0-1.107-1.38 1.098 1.098 0 0 0-.669-.396zm5.987 1.174a.404.404 0 0 0-.024.808c1.547.113 2.689.621 3.527 1.533.84.917 1.24 2.032 1.208 3.427a.407.407 0 0 0 .813.017c.033-1.567-.445-2.924-1.423-3.992-.987-1.08-2.369-1.671-4.067-1.795h-.032zM17.108 10a.406.406 0 0 0-.4.383.409.409 0 0 0 .384.427c.697.037 1.167.233 1.484.563.32.327.517.827.555 1.552a.404.404 0 0 0 .807-.04c-.04-.859-.287-1.571-.773-2.076-.489-.504-1.191-.765-2.027-.809h-.024z"/>
    </symbol>
  </defs>
</svg>
